HIERARCHY
ROOT Hips
{
	OFFSET 0.000000 0.000000 0.000000
	CHANNELS 6 Xposition Yposition Zposition Zrotation Yrotation Xrotation 
	JOINT LowerBack
	{
		OFFSET 0.000000 0.000000 0.000000
		CHANNELS 3 Zrotation Yrotation Xrotation
		JOINT Spine
		{
			OFFSET 0.028270 2.035590 -0.193380
			CHANNELS 3 Zrotation Yrotation Xrotation
			JOINT Spine1
			{
				OFFSET 0.056720 2.048850 -0.042750
				CHANNELS 3 Zrotation Yrotation Xrotation
				JOINT Neck
				{
					OFFSET 0.000000 0.000000 0.000000
					CHANNELS 3 Zrotation Yrotation Xrotation
					JOINT Neck1
					{
						OFFSET -0.054170 1.746240 0.172020
						CHANNELS 3 Zrotation Yrotation Xrotation
						JOINT Head
						{
							OFFSET 0.104070 1.761360 -0.123970
							CHANNELS 3 Zrotation Yrotation Xrotation
							End Site
							{
								OFFSET 0.000000 0.000000 0.000000
							}
						}
					}
				}
				JOINT LeftShoulder
				{
					OFFSET 0.000000 0.000000 0.000000
					CHANNELS 3 Zrotation Yrotation Xrotation
					JOINT LeftArm
					{
						OFFSET 3.362410 1.200890 -0.311210
						CHANNELS 3 Zrotation Yrotation Xrotation
						JOINT LeftForeArm
						{
							OFFSET 4.983000 -0.000000 -0.000000
							CHANNELS 3 Zrotation Yrotation Xrotation
							JOINT LeftHand
							{
								OFFSET 3.483560 -0.000000 -0.000000
								CHANNELS 3 Zrotation Yrotation Xrotation
								JOINT LeftFingerBase
								{
									OFFSET 0.000000 0.000000 0.000000
									CHANNELS 3 Zrotation Yrotation Xrotation
									JOINT LeftHandIndex1
									{
										OFFSET 0.715260 -0.000000 -0.000000
										CHANNELS 3 Zrotation Yrotation Xrotation
										End Site
										{
											OFFSET 0.000000 0.000000 0.000000
										}
									}
								}
								JOINT LThumb
								{
									OFFSET 0.000000 0.000000 0.000000
									CHANNELS 3 Zrotation Yrotation Xrotation
									End Site
									{
										OFFSET 0.000000 0.000000 0.000000
									}
								}
							}
						}
					}
				}
				JOINT RightShoulder
				{
					OFFSET 0.000000 0.000000 0.000000
					CHANNELS 3 Zrotation Yrotation Xrotation
					JOINT RightArm
					{
						OFFSET -3.136600 1.374050 -0.404650
						CHANNELS 3 Zrotation Yrotation Xrotation
						JOINT RightForeArm
						{
							OFFSET -5.241900 -0.000000 -0.000000
							CHANNELS 3 Zrotation Yrotation Xrotation
							JOINT RightHand
							{
								OFFSET -3.444170 -0.000000 -0.000000
								CHANNELS 3 Zrotation Yrotation Xrotation
								JOINT RightFingerBase
								{
									OFFSET 0.000000 0.000000 0.000000
									CHANNELS 3 Zrotation Yrotation Xrotation
									JOINT RightHandIndex1
									{
										OFFSET -0.622530 -0.000000 -0.000000
										CHANNELS 3 Zrotation Yrotation Xrotation
										End Site
										{
											OFFSET 0.000000 0.000000 0.000000
										}
									}
								}
								JOINT RThumb
								{
									OFFSET 0.000000 0.000000 0.000000
									CHANNELS 3 Zrotation Yrotation Xrotation
									End Site
									{
										OFFSET 0.000000 0.000000 0.000000
									}
								}
							}
						}
					}
				}
			}
		}
	}
}
}
MOTION
Frames: 6
Frame Time: 0.008333
-10.438821 16.776966 1.179117 -29.623304 83.957420 -6.943711 6.309975 -1.759066 3.788676 0.335955 -1.947672 -2.280677 -7.718032 -2.032920 -0.176374 12.523274 4.406046 5.273543 -4.357144 -0.394443 3.197926 0.000000 0.000000 0.000000 -6.516248 -9.356498 1.765416 -59.318756 -32.100067 18.154444 -2.089144 -55.049260 -0.024280 5.967159 -3.767506 -0.219505 -0.156983 0.364105 -0.000000 0.000000 0.000000 0.000000 0.000000 0.000000 0.000000 20.732873 1.248713 1.389260 54.684699 14.627357 -5.099107 2.834170 27.725309 0.008465 -0.133611 8.160584 -0.013375 0.056813 -0.105230 -0.000000 0.000000 0.000000 0.000000 0.000000 0.000000 0.000000 
-10.255816 16.765610 1.185303 -35.605078 84.150209 -13.023223 7.047311 -1.818357 3.915576 0.486378 -2.029459 -2.279571 -7.743395 -2.122820 -0.232788 12.676433 4.804956 5.382778 -4.380944 -0.395248 3.228952 0.000000 0.000000 0.000000 -6.711441 -9.406638 1.780809 -59.646632 -31.498145 17.754554 -2.092693 -54.820391 -0.025795 6.284026 -3.917842 -0.239521 -0.158226 0.364029 -0.000000 0.000000 0.000000 0.000000 0.000000 0.000000 0.000000 20.975445 1.475437 1.409586 54.495797 15.001904 -6.092225 2.867108 26.340709 0.008261 -0.453973 8.320428 -0.037386 0.058447 -0.104509 -0.000000 0.000000 0.000000 0.000000 0.000000 0.000000 0.000000 
-10.076986 16.760351 1.190845 -42.233253 84.355045 -19.775009 7.752710 -1.898962 4.085379 0.631661 -2.127209 -2.273172 -7.754937 -2.229546 -0.300769 12.851768 5.252088 5.503392 -4.387683 -0.395201 3.262846 0.000000 0.000000 0.000000 -6.847717 -9.480420 1.790188 -60.085783 -30.876462 17.346540 -2.098613 -54.404074 -0.027647 6.671012 -4.065393 -0.262847 -0.159634 0.362950 -0.000000 0.000000 0.000000 0.000000 0.000000 0.000000 0.000000 21.163467 1.754120 1.427170 54.403901 15.360436 -7.281411 2.890140 24.856642 0.007936 -0.816275 8.459898 -0.065297 0.059830 -0.104171 -0.000000 0.000000 0.000000 0.000000 0.000000 0.000000 0.000000 
-9.902098 16.760594 1.196964 -49.312798 84.553476 -26.998090 8.387073 -1.992413 4.284829 0.763432 -2.231900 -2.261580 -7.751918 -2.343526 -0.371864 13.050452 5.702912 5.622092 -4.378498 -0.394352 3.295993 0.000000 0.000000 0.000000 -6.916847 -9.572682 1.788740 -60.625922 -30.247591 16.948089 -2.105644 -53.800443 -0.029697 7.108396 -4.201796 -0.288484 -0.160934 0.360625 -0.000000 0.000000 0.000000 0.000000 0.000000 0.000000 0.000000 21.302112 2.045369 1.441304 54.414710 15.737253 -8.614477 2.903300 23.270631 0.007469 -1.239520 8.576003 -0.098408 0.061158 -0.104203 -0.000000 0.000000 0.000000 0.000000 0.000000 0.000000 0.000000 
-9.730770 16.765442 1.204744 -56.678087 84.732304 -34.521027 8.927212 -2.089298 4.499584 0.876876 -2.334675 -2.246894 -7.733936 -2.455707 -0.443976 13.271760 6.155594 5.736975 -4.351350 -0.392674 3.327996 0.000000 0.000000 0.000000 -6.928497 -9.672608 1.778878 -61.242002 -29.626360 16.584866 -2.114270 -53.012669 -0.031770 7.571221 -4.317892 -0.314631 -0.161993 0.356909 -0.000000 0.000000 0.000000 0.000000 0.000000 0.000000 0.000000 21.380836 2.360020 1.450912 54.547892 16.092550 -10.109565 2.903984 21.633805 0.006844 -1.702793 8.649171 -0.134820 0.062241 -0.104576 -0.000000 0.000000 0.000000 0.000000 0.000000 0.000000 0.000000 
-9.562458 16.774053 1.215415 -64.055223 84.893344 -42.064105 9.339581 -2.180561 4.719296 0.964611 -2.426717 -2.227747 -7.703060 -2.556447 -0.506323 13.515510 6.550163 5.831297 -4.311885 -0.390411 3.354085 0.000000 0.000000 0.000000 -6.877691 -9.777986 1.756307 -61.913779 -29.021161 16.267029 -2.123570 -52.056956 -0.033658 8.026317 -4.406699 -0.339385 -0.162494 0.351676 -0.000000 0.000000 0.000000 0.000000 0.000000 0.000000 0.000000 21.424131 2.638094 1.456204 54.786587 16.485587 -11.650588 2.894469 19.941386 0.006059 -2.231190 8.688003 -0.176131 0.063386 -0.105192 -0.000000 0.000000 0.000000 0.000000 0.000000 0.000000 0.000000 
